<svg width="226" height="100" viewBox="0 0 226 100" fill="none" xmlns="http://www.w3.org/2000/svg">
<path fill-rule="evenodd" clip-rule="evenodd" d="M112.542 11.7443C109.828 11.7443 109.557 12.0322 108.153 12.0322C106.983 12.0322 103.47 9.16666 101.716 9.16666C99.9596 9.16666 97.9118 10.1988 97.9118 13.178V16.6155C97.9154 17.5175 98.2418 20.2822 99.5251 19.5433C98.0089 21.3363 97.8568 23.4282 97.8769 25.4522C97.4681 25.5695 97.0519 25.7033 96.6468 25.8408C95.3928 26.2698 94.0618 26.8162 93.4623 27.2048C93.1559 27.4027 92.9408 27.7142 92.8641 28.0707C92.7874 28.4273 92.8555 28.7997 93.0534 29.106C93.2513 29.4123 93.5628 29.6275 93.9194 29.7042C94.2759 29.7808 94.6483 29.7127 94.9546 29.5148C95.2406 29.3297 96.2764 28.8732 97.5359 28.4423L97.9539 28.3048C98.0383 29.0987 98.2491 29.8265 98.5626 30.4865L98.5186 30.5103C97.7669 30.9063 97.0703 31.3628 96.6266 31.6525L96.4194 31.7882C96.1131 31.9861 95.8979 32.2975 95.8213 32.6541C95.7446 33.0106 95.8127 33.383 96.0106 33.6893C96.2085 33.9956 96.52 34.2108 96.8765 34.2875C97.2331 34.3642 97.6054 34.2961 97.9118 34.0982L98.1519 33.9405C98.6011 33.6472 99.1768 33.2713 99.8038 32.9413C99.9504 32.8625 100.092 32.7928 100.227 32.7287C103.399 35.7042 109.095 36.6667 112.542 36.6667C115.988 36.6667 121.685 35.7042 124.856 32.7287C124.992 32.7928 125.131 32.8625 125.28 32.9413C125.907 33.2713 126.482 33.6472 126.932 33.9405L127.172 34.0982C127.478 34.2961 127.85 34.3642 128.207 34.2875C128.564 34.2108 128.875 33.9956 129.073 33.6893C129.271 33.383 129.339 33.0106 129.262 32.6541C129.186 32.2975 128.97 31.9861 128.664 31.7882L128.457 31.6525C127.844 31.2427 127.213 30.8616 126.565 30.5103L126.521 30.4865C126.834 29.8265 127.045 29.0987 127.13 28.3048L127.548 28.4423C128.807 28.8732 129.843 29.3297 130.131 29.5148C130.437 29.7016 130.804 29.7614 131.154 29.6814C131.503 29.6014 131.808 29.3879 132.002 29.0865C132.197 28.7851 132.266 28.4197 132.195 28.0682C132.123 27.7166 131.918 27.4068 131.621 27.2048C131.022 26.8162 129.691 26.2698 128.439 25.8408C128.031 25.7018 127.62 25.5716 127.207 25.4503C127.229 23.4263 127.075 21.3363 125.557 19.5433C126.84 20.2822 127.17 17.5175 127.172 16.6137V13.178C127.172 10.1988 125.124 9.16666 123.368 9.16666C121.613 9.16666 118.1 12.0322 116.933 12.0322C115.526 12.0322 115.255 11.7443 112.542 11.7443ZM111.304 28.6C111.675 28.4735 112.113 28.4167 112.542 28.4167C112.971 28.4167 113.409 28.4735 113.781 28.6C113.964 28.6623 114.184 28.7613 114.382 28.919C114.518 29.0214 114.629 29.153 114.707 29.304C114.785 29.455 114.828 29.6217 114.833 29.7917C114.833 30.2133 114.579 30.5067 114.382 30.6643C114.186 30.822 113.963 30.921 113.781 30.9833C113.38 31.1101 112.962 31.172 112.542 31.1667C112.122 31.1721 111.704 31.1102 111.304 30.9833C111.086 30.9128 110.882 30.8048 110.701 30.6643C110.565 30.5619 110.454 30.4304 110.376 30.2793C110.298 30.1283 110.255 29.9616 110.25 29.7917C110.25 29.37 110.505 29.0767 110.701 28.919C110.897 28.7613 111.123 28.6623 111.304 28.6ZM116.52 22.9167C116.771 22.4987 117.264 22 118.005 22C118.746 22 119.241 22.4987 119.49 22.9167C119.75 23.3548 119.875 23.8828 119.875 24.4072C119.875 24.9297 119.75 25.4577 119.49 25.894C119.241 26.3138 118.746 26.8125 118.005 26.8125C117.264 26.8125 116.771 26.3138 116.52 25.8958C116.261 25.4428 116.128 24.9288 116.135 24.4072C116.135 23.8828 116.26 23.3548 116.52 22.9185M105.593 22.9185C105.845 22.5005 106.338 22.0018 107.078 22.0018C107.819 22.0018 108.314 22.5005 108.563 22.9185C108.824 23.3567 108.948 23.8847 108.948 24.409C108.948 24.9315 108.824 25.4595 108.563 25.8958C108.314 26.3157 107.819 26.8143 107.078 26.8143C106.338 26.8143 105.845 26.3157 105.593 25.8977C105.335 25.4446 105.202 24.9307 105.208 24.409C105.208 23.8847 105.333 23.3548 105.593 22.9185Z" fill="#fda4b1"/>
<path d="M1.484 75L1.508 74.184L5.348 73.8H5.756L5.732 75H1.484ZM3.62 75C3.692 72.264 3.692 69.432 3.692 67.224V65.52C3.692 62.688 3.692 59.856 3.62 57.072H7.844C7.772 59.832 7.772 62.664 7.772 65.136V66.696C7.772 69.36 7.772 72.192 7.844 75H3.62ZM5.732 75L5.756 74.064H14.612L12.572 74.952L13.988 69.624H15.308L15.356 75H5.732ZM1.484 57.888V57.072H10.172V57.888L6.26 58.248H5.348L1.484 57.888ZM29.4504 75.48C24.9384 75.48 20.9304 72.288 20.9304 66.024C20.9304 59.832 24.9384 56.592 29.4504 56.592C33.9624 56.592 37.9464 59.808 37.9464 66.024C37.9464 72.264 33.9864 75.48 29.4504 75.48ZM29.4504 74.568C32.3784 74.568 33.6744 70.968 33.6744 66.024C33.6744 61.128 32.3784 57.504 29.4504 57.504C26.5224 57.504 25.2024 61.128 25.2024 66.024C25.2024 70.968 26.5224 74.568 29.4504 74.568ZM43.6324 75V74.184L47.4964 73.8H48.2884L52.1284 74.184V75H43.6324ZM45.7684 75C45.8404 72.264 45.8404 69.432 45.8404 66.576V65.52C45.8404 62.688 45.8404 59.88 45.7684 57.072H49.9444C49.8484 59.832 49.8484 62.616 49.8484 65.76V66.456C49.8484 69.36 49.8484 72.192 49.9444 75H45.7684ZM58.1284 75.36C55.9204 75.36 54.6964 74.712 54.4564 72.768L53.7604 69.456C53.4244 67.488 52.8484 66.528 51.0004 66.528H47.9284V65.64H51.2404C53.9284 65.64 54.9604 63.84 54.9604 61.656C54.9604 59.28 53.6884 57.984 51.2644 57.984H47.8804V57.072H52.2964C56.4964 57.072 58.8004 58.728 58.8004 61.584C58.8004 63.792 57.1204 65.856 52.1284 66.144V65.856C56.5684 66.024 57.6244 67.368 58.1044 70.104L58.9924 74.784L56.9524 73.92L60.9844 74.184V75C60.0004 75.24 59.3284 75.36 58.1284 75.36ZM43.6324 57.888V57.072H47.8804V58.248H47.4964L43.6324 57.888ZM66.1012 75V74.184L69.9652 73.8H70.3492V75H66.1012ZM68.2372 75C68.3092 72.264 68.3092 69.432 68.3092 66.576V65.52C68.3092 62.688 68.3092 59.88 68.2372 57.072H72.4612C72.3892 59.832 72.3892 62.664 72.3892 65.616V66.36C72.3892 69.36 72.3892 72.192 72.4612 75H68.2372ZM70.3492 75V74.064H79.6372L77.5732 74.976L78.9412 70.032H80.2852L80.3332 75H70.3492ZM70.3492 66.288V65.424H76.3252V66.288H70.3492ZM76.0132 68.688L75.6292 66.024V65.52L76.0132 62.88H77.2132V68.688H76.0132ZM66.1012 57.888V57.072H70.3492V58.248H69.9652L66.1012 57.888ZM78.4132 61.848L77.0932 57.072L79.1092 58.008H70.3492V57.072H79.8292L79.8052 61.848H78.4132ZM85.8651 75V74.184L88.8411 73.8H89.4171L92.3691 74.184V75H85.8651ZM86.2491 57.888V57.072H90.0411V58.248H89.6571L86.2491 57.888ZM88.4811 75L88.5771 57.072H89.5131L89.6571 66.696V75H88.4811ZM95.4651 75L89.0571 58.2H88.8891V57.072H92.8011L97.8891 70.704H97.2171L97.3851 70.248L102.305 57.072H103.697V58.2H102.929L102.617 59.04L96.7131 75H95.4651ZM100.193 75V74.184L104.057 73.8H104.753L108.641 74.184V75H100.193ZM102.281 75C102.377 72.192 102.329 69.36 102.377 67.152L102.473 57.072H106.505C106.409 59.856 106.409 62.688 106.409 65.52V66.576C106.409 69.432 106.409 72.264 106.505 75H102.281ZM104.369 58.248V57.072H108.569V57.888L104.777 58.248H104.369ZM124.531 75V74.184L128.395 73.8H129.139L133.027 74.184V75H124.531ZM126.667 75C126.763 72.264 126.763 69.432 126.763 66.576V65.52C126.763 62.688 126.763 59.88 126.667 57.072H130.915C130.843 59.832 130.843 62.664 130.843 65.52V66.552C130.843 69.36 130.843 72.192 130.915 75H126.667ZM124.531 57.888V57.072H133.027V57.888L129.139 58.248H128.395L124.531 57.888ZM139.007 75V74.184L142.871 73.8H144.023L147.911 74.184V75H139.007ZM141.143 75C141.215 72.264 141.215 69.432 141.215 66.576V65.52C141.215 62.688 141.215 59.88 141.143 57.072H145.367C145.295 59.832 145.295 62.664 145.295 65.52V67.2C145.295 69.408 145.295 72.192 145.367 75H141.143ZM143.255 67.824V66.912H146.111C148.871 66.912 150.167 65.064 150.167 62.376C150.167 59.472 148.823 57.984 146.279 57.984H143.255V57.072H146.279C151.775 57.072 153.983 59.016 153.983 62.4C153.983 65.4 151.919 67.824 146.207 67.824H143.255ZM139.007 57.888V57.072H143.255V58.248H142.871L139.007 57.888ZM165.41 75.48C163.442 75.48 161.258 74.976 159.818 74.04L159.986 69.912H161.378L162.842 74.76L161.162 74.064L160.826 73.104C162.41 74.184 163.418 74.448 165.002 74.448C167.378 74.448 168.674 73.32 168.674 71.448C168.674 69.84 168.002 69 166.082 68.136L164.93 67.632C161.714 66.168 160.01 64.56 160.01 61.68C160.01 58.44 162.65 56.592 166.562 56.592C168.458 56.592 170.162 57.096 171.434 57.96L171.242 61.896H169.85L168.458 57.288L170.282 58.032L170.522 59.088C169.106 57.984 168.362 57.6 167.066 57.6C164.978 57.6 163.586 58.656 163.586 60.456C163.586 62.112 164.498 63 166.202 63.768L167.45 64.344C171.05 65.952 172.37 67.392 172.37 70.104C172.37 73.296 169.922 75.48 165.41 75.48ZM186.805 75.48C182.677 75.48 179.797 73.536 179.797 67.872V65.256C179.797 62.568 179.797 59.808 179.701 57.072H183.925C183.877 59.784 183.877 62.52 183.877 65.256V67.512C183.877 71.904 185.317 73.512 188.077 73.512C190.861 73.512 192.469 71.76 192.421 67.416L192.325 57.072H193.573L193.477 67.464C193.405 72.984 191.077 75.48 186.805 75.48ZM177.661 57.888V57.072H186.205V57.888L182.269 58.248H181.549L177.661 57.888ZM189.589 57.888V57.072H196.045V57.888L193.333 58.272H192.565L189.589 57.888ZM200.943 75V74.184L203.919 73.8H204.495L207.447 74.184V75H200.943ZM201.327 57.888V57.072H205.119V58.248H204.735L201.327 57.888ZM203.559 75L203.655 57.072H204.591L204.735 66.696V75H203.559ZM210.543 75L204.135 58.2H203.967V57.072H207.879L212.967 70.704H212.295L212.463 70.248L217.383 57.072H218.775V58.2H218.007L217.695 59.04L211.791 75H210.543ZM215.271 75V74.184L219.135 73.8H219.831L223.719 74.184V75H215.271ZM217.359 75C217.455 72.192 217.407 69.36 217.455 67.152L217.551 57.072H221.583C221.487 59.856 221.487 62.688 221.487 65.52V66.576C221.487 69.432 221.487 72.264 221.583 75H217.359ZM219.447 58.248V57.072H223.647V57.888L219.855 58.248H219.447Z" fill="#fda4b1"/>
<path d="M37.82 97.17C36.06 97.17 34.56 95.77 34.56 93.37C34.56 90.99 36.06 89.56 37.82 89.56C39.6 89.56 41.1 90.96 41.1 93.37C41.1 95.75 39.6 97.17 37.82 97.17ZM37.82 96.82C39.35 96.82 40.15 95.25 40.15 93.37C40.15 91.49 39.35 89.91 37.82 89.91C36.3 89.91 35.5 91.49 35.5 93.37C35.5 95.25 36.3 96.82 37.82 96.82ZM46.0102 97V96.7L47.3902 96.58H47.6602L49.1002 96.7V97H46.0102ZM47.0402 97C47.0602 95.9 47.0602 94.77 47.0602 93.64V93.09C47.0602 91.96 47.0602 90.84 47.0402 89.72H47.9702C47.9502 90.83 47.9502 91.96 47.9502 93.21V93.43C47.9502 94.77 47.9502 95.89 47.9702 97H47.0402ZM47.5102 93.48V93.14H49.9502V93.48H47.5102ZM49.8602 94.54L49.7302 93.44V93.18L49.8602 92.1H50.2202V94.54H49.8602ZM46.0102 90.03V89.72H47.5102V90.14H47.3902L46.0102 90.03ZM50.9902 91.52L50.6502 89.79L51.1102 90.08H47.5102V89.72H51.3602L51.4102 91.52H50.9902ZM56.2114 97V96.7L57.5914 96.58H57.8614L59.3014 96.7V97H56.2114ZM57.2414 97C57.2614 95.9 57.2614 94.77 57.2614 93.64V93.09C57.2614 91.96 57.2614 90.84 57.2414 89.72H58.1714C58.1514 90.83 58.1514 91.96 58.1514 93.21V93.43C58.1514 94.77 58.1514 95.89 58.1714 97H57.2414ZM57.7114 93.48V93.14H60.1514V93.48H57.7114ZM60.0614 94.54L59.9314 93.44V93.18L60.0614 92.1H60.4214V94.54H60.0614ZM56.2114 90.03V89.72H57.7114V90.14H57.5914L56.2114 90.03ZM61.1914 91.52L60.8514 89.79L61.3114 90.08H57.7114V89.72H61.5614L61.6114 91.52H61.1914ZM66.4126 97V96.7L67.7926 96.58H68.0126L69.4026 96.7V97H66.4126ZM67.4426 97C67.4626 95.9 67.4626 94.77 67.4626 93.64V93.09C67.4626 91.96 67.4626 90.84 67.4426 89.72H68.3726C68.3526 90.83 68.3526 91.96 68.3526 93.09V93.64C68.3526 94.77 68.3526 95.89 68.3726 97H67.4426ZM66.4126 90.03V89.72H69.4026V90.03L68.0126 90.14H67.7926L66.4126 90.03ZM77.9895 97.17C75.8295 97.17 74.3295 95.73 74.3295 93.38C74.3295 91.04 75.8995 89.56 77.9895 89.56C78.7995 89.56 79.4095 89.73 80.0595 90.11L80.0795 91.72H79.6295L79.2995 89.98L79.7995 90.15V90.5C79.2395 90.08 78.7595 89.91 78.1195 89.91C76.4595 89.91 75.2795 91.15 75.2795 93.37C75.2795 95.6 76.4595 96.82 78.0795 96.82C78.7195 96.82 79.2895 96.66 79.8595 96.24V96.57L79.3695 96.71L79.7095 95.01H80.1595L80.1395 96.61C79.4695 97.01 78.7995 97.17 77.9895 97.17ZM85.2036 97V96.7L86.5836 96.58H86.8036L88.1936 96.7V97H85.2036ZM86.2336 97C86.2536 95.9 86.2536 94.77 86.2536 93.64V93.09C86.2536 91.96 86.2536 90.84 86.2336 89.72H87.1636C87.1436 90.83 87.1436 91.96 87.1436 93.09V93.64C87.1436 94.77 87.1436 95.89 87.1636 97H86.2336ZM85.2036 90.03V89.72H88.1936V90.03L86.8036 90.14H86.5836L85.2036 90.03ZM92.8463 97V96.7L93.8363 96.59H94.0063L95.0863 96.7V97H92.8463ZM93.5763 97L96.0163 89.66H96.5763L99.0563 97H98.1563L95.9463 90.26H96.1563L96.1163 90.4L93.9963 97H93.5763ZM94.6563 94.52L94.6863 94.2H97.7363L97.7663 94.52H94.6563ZM96.9163 97V96.7L98.2463 96.59H98.5363L99.8463 96.7V97H96.9163ZM104.356 97L104.366 96.7L105.736 96.58H105.856V97H104.356ZM105.386 97C105.406 95.9 105.406 94.77 105.406 93.72V93.09C105.406 91.96 105.406 90.83 105.386 89.72H106.316C106.296 90.84 106.296 91.96 106.296 93.23V93.81C106.296 94.77 106.296 95.89 106.316 97H105.386ZM105.856 97V96.66H109.346L108.936 96.91L109.286 95.06H109.716L109.646 97H105.856ZM104.356 90.03V89.72H107.376V90.03L105.966 90.14H105.736L104.356 90.03ZM123.605 97.07L121.535 89.72H122.445L124.175 96.16H123.995L124.035 96.01L125.905 89.72H126.355L128.265 96.2H128.095L128.135 96.04L129.785 89.72H130.205L128.205 97.07H127.735L125.795 90.68H125.985L125.935 90.83L124.075 97.07H123.605ZM120.765 90.03V89.72H123.585V90.03L122.275 90.14H122.045L120.765 90.03ZM124.775 90.03V89.72H127.565V90.03L126.305 90.14H125.995L124.775 90.03ZM128.665 90.03V89.72H131.095V90.03L129.985 90.14H129.775L128.665 90.03ZM135.692 97V96.7L137.072 96.58H137.192V97H135.692ZM136.722 97C136.742 95.9 136.742 94.77 136.742 93.64V93.09C136.742 91.96 136.742 90.84 136.722 89.72H137.652C137.632 90.83 137.632 91.96 137.632 93.21V93.43C137.632 94.77 137.632 95.89 137.652 97H136.722ZM137.192 97V96.66H140.932L140.492 96.92L140.822 95.18H141.252L141.182 97H137.192ZM137.192 93.48V93.14H139.592V93.48H137.192ZM139.522 94.5L139.392 93.39V93.18L139.522 92.1H139.872V94.5H139.522ZM135.692 90.03V89.72H137.192V90.14H137.072L135.692 90.03ZM140.642 91.52L140.312 89.8L140.762 90.08H137.192V89.72H141.002L141.072 91.52H140.642ZM146.215 97V96.7L147.595 96.58H147.715V97H146.215ZM147.245 97C147.265 95.89 147.265 94.75 147.265 93.6V93.08C147.265 91.96 147.265 90.84 147.245 89.72H148.165C148.135 90.83 148.135 91.94 148.135 93.13V93.32C148.135 94.74 148.135 95.88 148.165 97H147.245ZM147.715 97V96.67H149.045C150.315 96.67 151.055 96.09 151.055 95.03C151.055 93.95 150.375 93.37 148.855 93.37H147.715V93.06H148.755C150.055 93.06 150.705 92.47 150.705 91.46C150.705 90.58 150.205 90.06 148.915 90.06H147.715V89.72H149.165C150.815 89.72 151.565 90.43 151.565 91.45C151.565 92.31 150.925 93.08 149.305 93.23L149.365 93.14C151.195 93.22 151.945 93.99 151.945 95.03C151.945 96.06 151.175 97 149.115 97H147.715ZM146.215 90.03V89.72H147.715V90.14H147.595L146.215 90.03ZM159.035 97.17C158.205 97.17 157.405 96.91 156.925 96.59L156.975 95.09H157.395L157.705 96.74L157.245 96.52L157.195 96.2C157.835 96.67 158.265 96.81 158.975 96.81C160.055 96.81 160.775 96.31 160.775 95.35C160.775 94.63 160.425 94.24 159.335 93.79L158.915 93.61C157.725 93.11 157.095 92.48 157.095 91.46C157.095 90.21 158.135 89.56 159.425 89.56C160.195 89.56 160.735 89.76 161.235 90.1L161.185 91.52H160.755L160.455 89.94L160.925 90.16L160.945 90.49C160.435 90.07 160.055 89.92 159.475 89.92C158.545 89.92 157.865 90.37 157.865 91.25C157.865 92 158.345 92.42 159.125 92.74L159.585 92.93C161.095 93.56 161.565 94.12 161.565 95.14C161.565 96.39 160.555 97.17 159.035 97.17ZM166.569 97V96.7L167.949 96.58H168.169L169.559 96.7V97H166.569ZM167.599 97C167.619 95.9 167.619 94.77 167.619 93.64V93.09C167.619 91.96 167.619 90.84 167.599 89.72H168.529C168.509 90.83 168.509 91.96 168.509 93.09V93.64C168.509 94.77 168.509 95.89 168.529 97H167.599ZM166.569 90.03V89.72H169.559V90.03L168.169 90.14H167.949L166.569 90.03ZM175.792 97V96.7L177.262 96.58H177.512L178.992 96.7V97H175.792ZM176.932 97C176.962 95.9 176.962 94.77 176.962 93.64V93.09C176.962 91.96 176.962 90.84 176.932 89.72H177.862C177.842 90.83 177.842 91.96 177.842 93.09V93.64C177.842 94.77 177.842 95.89 177.862 97H176.932ZM174.322 91.62L174.402 89.72H180.392L180.482 91.62H180.052L179.692 89.72L180.102 90.08H174.682L175.112 89.72L174.742 91.62H174.322ZM185.213 97V96.7L186.593 96.58H186.713V97H185.213ZM186.243 97C186.263 95.9 186.263 94.77 186.263 93.64V93.09C186.263 91.96 186.263 90.84 186.243 89.72H187.173C187.153 90.83 187.153 91.96 187.153 93.21V93.43C187.153 94.77 187.153 95.89 187.173 97H186.243ZM186.713 97V96.66H190.453L190.013 96.92L190.343 95.18H190.773L190.703 97H186.713ZM186.713 93.48V93.14H189.113V93.48H186.713ZM189.043 94.5L188.913 93.39V93.18L189.043 92.1H189.393V94.5H189.043ZM185.213 90.03V89.72H186.713V90.14H186.593L185.213 90.03ZM190.163 91.52L189.833 89.8L190.283 90.08H186.713V89.72H190.523L190.593 91.52H190.163Z" fill="#fda4b1"/>
</svg>