<svg width="41" height="28" viewBox="0 0 41 28" fill="none" xmlns="http://www.w3.org/2000/svg">
<path fill-rule="evenodd" clip-rule="evenodd" d="M20.5418 2.74429C17.8284 2.74429 17.5571 3.03213 16.1528 3.03213C14.9831 3.03213 11.4704 0.166626 9.71594 0.166626C7.95961 0.166626 5.91177 1.19879 5.91177 4.17796V7.61546C5.91544 8.51746 6.24177 11.2821 7.52511 10.5433C6.00894 12.3363 5.85677 14.4281 5.87694 16.4521C5.46811 16.5695 5.05194 16.7033 4.64677 16.8408C3.39277 17.2698 2.06177 17.8161 1.46227 18.2048C1.15595 18.4027 0.940782 18.7142 0.864111 19.0707C0.78744 19.4272 0.855543 19.7996 1.05344 20.106C1.25133 20.4123 1.56281 20.6275 1.91935 20.7041C2.27589 20.7808 2.64828 20.7127 2.95461 20.5148C3.24061 20.3296 4.27644 19.8731 5.53594 19.4423L5.95394 19.3048C6.03827 20.0986 6.24911 20.8265 6.56261 21.4865L6.51861 21.5103C5.76694 21.9063 5.07027 22.3628 4.62661 22.6525L4.41944 22.7881C4.11311 22.986 3.89795 23.2975 3.82128 23.654C3.74461 24.0106 3.81271 24.383 4.01061 24.6893C4.2085 24.9956 4.51998 25.2108 4.87652 25.2875C5.23305 25.3641 5.60545 25.296 5.91177 25.0981L6.15194 24.9405C6.60111 24.6471 7.17677 24.2713 7.80377 23.9413C7.95044 23.8625 8.09161 23.7928 8.22727 23.7286C11.3989 26.7041 17.0951 27.6666 20.5418 27.6666C23.9884 27.6666 29.6846 26.7041 32.8563 23.7286C32.9919 23.7928 33.1313 23.8625 33.2798 23.9413C33.9068 24.2713 34.4824 24.6471 34.9316 24.9405L35.1718 25.0981C35.4781 25.296 35.8505 25.3641 36.207 25.2875C36.5636 25.2108 36.875 24.9956 37.0729 24.6893C37.2708 24.383 37.3389 24.0106 37.2623 23.654C37.1856 23.2975 36.9704 22.986 36.6641 22.7881L36.4569 22.6525C35.8443 22.2427 35.2129 21.8616 34.5649 21.5103L34.5209 21.4865C34.8344 20.8265 35.0453 20.0986 35.1296 19.3048L35.5476 19.4423C36.8071 19.8731 37.8429 20.3296 38.1308 20.5148C38.437 20.7016 38.804 20.7614 39.1536 20.6813C39.5033 20.6013 39.8078 20.3879 40.0023 20.0865C40.1967 19.7851 40.2657 19.4197 40.1945 19.0681C40.1234 18.7166 39.9177 18.4068 39.6213 18.2048C39.0218 17.8161 37.6908 17.2698 36.4386 16.8408C36.0308 16.7018 35.62 16.5716 35.2066 16.4503C35.2286 14.4263 35.0746 12.3363 33.5566 10.5433C34.8399 11.2821 35.1699 8.51746 35.1718 7.61363V4.17796C35.1718 1.19879 33.1239 0.166626 31.3676 0.166626C29.6131 0.166626 26.1004 3.03213 24.9326 3.03213C23.5264 3.03213 23.2551 2.74429 20.5418 2.74429ZM19.3043 19.6C19.6746 19.4735 20.1128 19.4166 20.5418 19.4166C20.9708 19.4166 21.4089 19.4735 21.7811 19.6C21.9644 19.6623 22.1844 19.7613 22.3824 19.919C22.5182 20.0213 22.6292 20.1529 22.7073 20.304C22.7853 20.455 22.8284 20.6217 22.8334 20.7916C22.8334 21.2133 22.5786 21.5066 22.3824 21.6643C22.1863 21.822 21.9626 21.921 21.7811 21.9833C21.3804 22.1101 20.962 22.172 20.5418 22.1666C20.1221 22.1721 19.7043 22.1102 19.3043 21.9833C19.0862 21.9127 18.8821 21.8048 18.7011 21.6643C18.5654 21.5619 18.4544 21.4303 18.3763 21.2793C18.2982 21.1282 18.2551 20.9616 18.2501 20.7916C18.2501 20.37 18.5049 20.0766 18.7011 19.919C18.8973 19.7613 19.1228 19.6623 19.3043 19.6ZM24.5201 13.9166C24.7713 13.4986 25.2644 13 26.0051 13C26.7458 13 27.2408 13.4986 27.4901 13.9166C27.7504 14.3548 27.8751 14.8828 27.8751 15.4071C27.8751 15.9296 27.7504 16.4576 27.4901 16.894C27.2408 17.3138 26.7458 17.8125 26.0051 17.8125C25.2644 17.8125 24.7713 17.3138 24.5201 16.8958C24.2614 16.4428 24.1284 15.9288 24.1351 15.4071C24.1351 14.8828 24.2598 14.3548 24.5201 13.9185M13.5934 13.9185C13.8446 13.5005 14.3378 13.0018 15.0784 13.0018C15.8191 13.0018 16.3141 13.5005 16.5634 13.9185C16.8238 14.3566 16.9484 14.8846 16.9484 15.409C16.9484 15.9315 16.8238 16.4595 16.5634 16.8958C16.3141 17.3156 15.8191 17.8143 15.0784 17.8143C14.3378 17.8143 13.8446 17.3156 13.5934 16.8976C13.3347 16.4446 13.2018 15.9306 13.2084 15.409C13.2084 14.8846 13.3331 14.3548 13.5934 13.9185Z" fill="#fda4b1"/>
</svg>
